<svg xmlns="http://www.w3.org/2000/svg" viewBox="0 0 64 64">
  <defs>
    <clipPath id="panel-clip">
      <rect x="7" y="7" width="50" height="50" rx="8" ry="8"/>
    </clipPath>
    <filter id="grain" x="-20%" y="-20%" width="140%" height="140%">
      <feTurbulence type="fractalNoise" baseFrequency="0.9" numOctaves="2" seed="7" result="noise"/>
      <feColorMatrix
        in="noise"
        type="matrix"
        values="
          0 0 0 0 0
          0 0 0 0 0
          0 0 0 0 0
          0 0 0 0.17 0"/>
    </filter>
    <filter id="edge-soft" x="-20%" y="-20%" width="140%" height="140%">
      <feGaussianBlur stdDeviation="1.2"/>
    </filter>
  </defs>

  <rect x="4" y="4" width="56" height="56" rx="12" ry="12" fill="#d8dde2"/>
  <g clip-path="url(#panel-clip)">
    <rect x="7" y="7" width="50" height="50" fill="#f4f5f6"/>
    <polygon points="7,7 18.3,7 47.1,57 7,57" fill="#1d1f23"/>
    <line x1="18.3" y1="7" x2="47.1" y2="57" stroke="#8c8f95" stroke-width="4.2" filter="url(#edge-soft)" opacity="0.9"/>
    <line x1="18.3" y1="7" x2="47.1" y2="57" stroke="#c2c5ca" stroke-width="1.2" opacity="0.7"/>
    <rect x="7" y="7" width="50" height="50" filter="url(#grain)"/>
  </g>

  <rect x="23" y="16" width="20" height="33" fill="none" stroke="#ffd11a" stroke-width="1.8"/>
  <line x1="23.5" y1="16" x2="42.5" y2="49" stroke="#d7191c" stroke-width="1.3"/>

  <circle cx="23" cy="16" r="1.1" fill="#00d8ff"/>
  <circle cx="43" cy="16" r="1.1" fill="#00d8ff"/>
  <circle cx="23" cy="49" r="1.1" fill="#00d8ff"/>
  <circle cx="43" cy="49" r="1.1" fill="#00d8ff"/>

  <rect x="7" y="7" width="50" height="50" rx="8" ry="8" fill="none" stroke="#2d3138" stroke-width="1.5"/>
</svg>
